# xmcd
# 
# Track frame offsets:
#     150
#     23497
#     41535
#     64883
# 
# Disc length: 1103
# 
# Revision: 3
# Processed by: cddbd v1.5.2PL0 Copyright (c) Steve Scherf et al.
# Submitted via: fre:ac v1.0.17
# 
DISCID=29044d04
DTITLE=CHiCO with HoneyWorks - 世界は恋に落ちている
DYEAR=2014
DGENRE=Pop
TTITLE0=世界は恋に落ちている
TTITLE1=color
TTITLE2=世界は恋に落ちている -instrumental-
TTITLE3=color -instrumental-
EXTD=
EXTT0=
EXTT1=
EXTT2=
EXTT3=
PLAYORDER=
